<svg xmlns="http://www.w3.org/2000/svg" viewBox="0 0 345.85 378.45"><defs><style>.cls-1{fill:#004af5;}</style></defs><g id="Camada_2" data-name="Camada 2"><g id="Camada_1-2" data-name="Camada 1"><path class="cls-1" d="M336,253H289.88l-.27,0a134.48,134.48,0,0,0,2.93-127.29,2.57,2.57,0,0,1,.9-.16H336c9.59,0,13.47-12.88,5.6-18.37L186.82,4.36a24.33,24.33,0,0,0-27.79,0L4.22,107.12c-7.87,5.49-4,18.37,5.6,18.37h42.7a2.64,2.64,0,0,1,.81.13A134.44,134.44,0,0,0,56.25,253H9.82c-9.59,0-13.47,12.88-5.6,18.37L159,374.09a24.33,24.33,0,0,0,27.79,0L341.64,271.33C349.51,265.84,345.63,253,336,253ZM213.4,267.78a1.49,1.49,0,0,1-2.83-.21c-4-16.87-16.22-32.83-37.25-32.83s-33.25,15.95-37.25,32.83a1.49,1.49,0,0,1-2.83.21,43.32,43.32,0,1,1,80.16,0Zm34.31-18.42a67.79,67.79,0,0,1-11.56,18.49,2.38,2.38,0,0,1-4-2.38l.09-.22a60.17,60.17,0,0,0-34.2-75.2c-29.81-12.33-63.88.56-78,28.83l-.08.18a2.38,2.38,0,0,1-4.54-1.15,67.47,67.47,0,0,1,5.13-21.14c14.64-34.78,55-51.19,90.11-36.67S262.36,214.59,247.71,249.36Zm26.77-46.12a3.51,3.51,0,0,1-6.93.09,83.6,83.6,0,0,0-4.75-16.94C245.65,143.07,193.88,120,150.43,136.9s-62.13,67.23-45,110.55a85,85,0,0,0,8.14,15.62,3.49,3.49,0,0,1-5.15,4.59A101.92,101.92,0,1,1,268.25,152.17,100.9,100.9,0,0,1,274.48,203.24Z"/></g></g></svg>